<svg width="32" height="32" viewBox="0 0 32 32" xmlns="http://www.w3.org/2000/svg">
  <defs>
    <linearGradient id="bubbleGradient" x1="0%" y1="0%" x2="100%" y2="100%">
      <stop offset="0%" style="stop-color:#667eea;stop-opacity:1" />
      <stop offset="100%" style="stop-color:#764ba2;stop-opacity:1" />
    </linearGradient>
    <linearGradient id="heartGradient" x1="0%" y1="0%" x2="100%" y2="100%">
      <stop offset="0%" style="stop-color:#ff6b9d;stop-opacity:1" />
      <stop offset="100%" style="stop-color:#ff4081;stop-opacity:1" />
    </linearGradient>
  </defs>
  
  <path d="M6 8c0-3.31 2.69-6 6-6h8c3.31 0 6 2.69 6 6v8c0 3.31-2.69 6-6 6h-3l-4 4v-4h-1c-3.31 0-6-2.69-6-6V8z" 
        fill="url(#bubbleGradient)" 
        stroke="rgba(255,255,255,0.3)" 
        stroke-width="0.5"/>
  
  <path d="M16 20c-0.2 0-0.4-0.1-0.5-0.2-0.1-0.1-2.5-2.3-4.2-4.2-1.2-1.3-1.8-2.5-1.8-3.6 0-1.9 1.5-3.5 3.4-3.5 0.9 0 1.7 0.4 2.2 1 0.5-0.6 1.3-1 2.2-1 1.9 0 3.4 1.6 3.4 3.5 0 1.1-0.6 2.3-1.8 3.6-1.7 1.9-4.1 4.1-4.2 4.2-0.1 0.1-0.3 0.2-0.5 0.2z" 
        fill="url(#heartGradient)"/>
  
  <ellipse cx="13" cy="6" rx="3" ry="1.5" fill="rgba(255,255,255,0.2)"/>
</svg>